<svg width="24" height="24" viewBox="0 0 24 24" fill="none" xmlns="http://www.w3.org/2000/svg">
    <path fill-rule="evenodd" clip-rule="evenodd" d="M7.064 1C3.437 1 1 3.546 1 7.335V16.165C1 19.954 3.437 22.5 7.064 22.5H16.436C20.063 22.5 22.5 19.954 22.5 16.165V7.335C22.5 3.546 20.063 1 16.436 1H7.064ZM7.12109 9.20251C6.70709 9.20251 6.37109 9.53851 6.37109 9.95251V16.8125C6.37109 17.2265 6.70709 17.5625 7.12109 17.5625C7.53509 17.5625 7.87109 17.2265 7.87109 16.8125V9.95251C7.87109 9.53851 7.53509 9.20251 7.12109 9.20251ZM11.7881 5.91849C11.3741 5.91849 11.0381 6.25449 11.0381 6.66849V16.8115C11.0381 17.2255 11.3741 17.5615 11.7881 17.5615C12.2021 17.5615 12.5381 17.2255 12.5381 16.8115V6.66849C12.5381 6.25449 12.2021 5.91849 11.7881 5.91849ZM16.3784 12.8275C15.9644 12.8275 15.6284 13.1635 15.6284 13.5775V16.8115C15.6284 17.2255 15.9644 17.5615 16.3784 17.5615C16.7924 17.5615 17.1284 17.2255 17.1284 16.8115V13.5775C17.1284 13.1635 16.7924 12.8275 16.3784 12.8275Z" fill="#9CA4AB"/>
</svg>