<svg width="24" height="24" viewBox="0 0 24 24" fill="none" xmlns="http://www.w3.org/2000/svg">
    <path fill-rule="evenodd" clip-rule="evenodd" d="M16.3911 2.25C19.7034 2.25 22.3888 4.93528 22.3888 8.24766V9.01321H17.5906C15.69 9.01321 14.1484 10.5539 14.1484 12.4545C14.1484 14.3551 15.69 15.8949 17.5906 15.8949H22.3888V15.4247C22.3888 18.7371 19.7034 21.4224 16.3911 21.4224H7.74766C4.43528 21.4224 1.75 18.7371 1.75 15.4247V8.24766C1.75 4.93528 4.43528 2.25 7.74766 2.25H16.3911ZM17.5906 10.5132H21.6389C22.0531 10.5132 22.3889 10.849 22.3889 11.2632V13.3958C22.3889 13.81 22.0531 14.1458 21.6389 14.1458H17.5906C16.5184 14.1449 15.6493 13.2767 15.6484 12.2045C15.6484 11.1323 16.5184 10.2632 17.5906 10.5132Z" fill="#9CA4AB"/>
    <path d="M7.03558 6.78817C6.62137 6.78817 6.28558 7.12396 6.28558 7.53817C6.28558 7.95238 6.62137 8.28817 7.03558 8.28817H12.4345C12.8487 8.28817 13.1845 7.95238 13.1845 7.53817C13.1845 7.12396 12.8487 6.78817 12.4345 6.78817H7.03558Z" fill="#9CA4AB"/>
    <circle cx="17.8928" cy="12.2045" r="0.65" fill="white"/>
</svg>